<svg width="1102" height="1530" viewBox="0 0 1102 1530" fill="none" xmlns="http://www.w3.org/2000/svg">

<path class="flora-nyxanthis" d="M308.498 451.35C306.86 451.35 305.289 450.752 304.13 449.688C302.972 448.623 302.321 447.18 302.321 445.675C302.321 444.17 302.972 442.727 304.13 441.662C305.289 440.598 306.86 440 308.498 440C310.137 440 311.708 440.598 312.866 441.662C314.025 442.727 314.675 444.17 314.675 445.675C314.675 447.18 314.025 448.623 312.866 449.688C311.708 450.752 310.137 451.35 308.498 451.35ZM308.498 442.838C307.679 442.838 306.893 443.137 306.314 443.669C305.735 444.201 305.41 444.922 305.41 445.675C305.41 446.427 305.735 447.149 306.314 447.681C306.893 448.213 307.679 448.512 308.498 448.512C309.317 448.512 310.103 448.213 310.682 447.681C311.261 447.149 311.587 446.427 311.587 445.675C311.587 444.922 311.261 444.201 310.682 443.669C310.103 443.137 309.317 442.838 308.498 442.838ZM308.498 462.699C306.814 462.698 305.176 462.191 303.833 461.255C302.491 460.32 301.518 459.008 301.062 457.518C299.433 457.849 297.73 457.693 296.204 457.073C294.677 456.453 293.406 455.401 292.576 454.071C291.745 452.741 291.399 451.202 291.587 449.679C291.774 448.155 292.487 446.727 293.62 445.601C288.37 440.62 293.634 431.982 301.085 433.757C301.566 432.294 302.546 431.013 303.881 430.102C305.217 429.191 306.835 428.699 308.498 428.699C310.161 428.699 311.78 429.191 313.115 430.102C314.45 431.013 315.43 432.294 315.911 433.757C323.478 432.031 328.574 440.585 323.368 445.662C328.631 450.682 323.385 459.057 315.934 457.518C315.478 459.008 314.505 460.32 313.163 461.255C311.821 462.191 310.183 462.698 308.498 462.699ZM302.321 454.187C302.73 454.187 303.123 454.337 303.413 454.603C303.703 454.869 303.865 455.23 303.865 455.606C303.865 456.735 304.353 457.817 305.222 458.615C306.091 459.413 307.269 459.862 308.498 459.862C309.727 459.862 310.905 459.413 311.774 458.615C312.643 457.817 313.131 456.735 313.131 455.606C313.131 455.356 313.203 455.11 313.339 454.894C313.475 454.678 313.672 454.498 313.908 454.374C314.144 454.25 314.411 454.185 314.683 454.186C314.955 454.188 315.222 454.255 315.457 454.381C320.809 456.758 325.341 449.867 320.115 446.921C319.873 446.797 319.673 446.616 319.533 446.397C319.393 446.178 319.319 445.929 319.319 445.675C319.319 445.421 319.393 445.172 319.533 444.953C319.673 444.734 319.873 444.553 320.115 444.429C325.231 441.579 320.921 434.188 315.452 436.976C315.217 437.101 314.95 437.168 314.678 437.168C314.406 437.169 314.139 437.103 313.903 436.978C313.668 436.853 313.472 436.673 313.337 436.456C313.201 436.24 313.13 435.994 313.131 435.744C313.131 434.615 312.643 433.533 311.774 432.735C310.905 431.936 309.727 431.488 308.498 431.488C307.269 431.488 306.091 431.936 305.222 432.735C304.353 433.533 303.865 434.615 303.865 435.744C303.866 435.993 303.795 436.238 303.659 436.454C303.524 436.671 303.329 436.85 303.094 436.975C302.86 437.1 302.593 437.166 302.322 437.166C302.05 437.166 301.784 437.1 301.549 436.976C296.144 434.195 291.724 441.532 296.882 444.356C297.123 444.48 297.324 444.661 297.463 444.88C297.603 445.099 297.677 445.348 297.677 445.602C297.677 445.856 297.603 446.105 297.463 446.324C297.324 446.543 297.123 446.724 296.882 446.848C291.711 449.846 296.088 456.741 301.539 454.381C301.777 454.254 302.046 454.187 302.321 454.187Z" fill="#F1F1E6" fill-opacity="0.5"/>
<path class="ruins-lumineth" d="M531.502 564.15C531.502 564.526 531.353 564.886 531.087 565.152C530.822 565.417 530.461 565.567 530.086 565.567H498.919C498.543 565.567 498.183 565.417 497.917 565.152C497.652 564.886 497.502 564.526 497.502 564.15C497.502 563.774 497.652 563.414 497.917 563.148C498.183 562.883 498.543 562.733 498.919 562.733H530.086C530.461 562.733 530.822 562.883 531.087 563.148C531.353 563.414 531.502 563.774 531.502 564.15ZM497.915 543.682C497.609 543.116 497.468 542.476 497.506 541.834C497.544 541.191 497.761 540.573 498.131 540.047C498.737 539.159 499.547 538.43 500.494 537.922L511.121 532.391C512.165 531.848 513.325 531.564 514.502 531.564C515.68 531.564 516.839 531.848 517.884 532.391L528.509 537.926C529.456 538.434 530.267 539.163 530.872 540.051C531.242 540.577 531.459 541.196 531.497 541.838C531.535 542.48 531.394 543.12 531.089 543.686C530.76 544.308 530.267 544.827 529.664 545.188C529.06 545.549 528.369 545.738 527.666 545.733H527.252V557.067H528.669C529.045 557.067 529.405 557.216 529.671 557.482C529.936 557.747 530.086 558.108 530.086 558.483C530.086 558.859 529.936 559.219 529.671 559.485C529.405 559.751 529.045 559.9 528.669 559.9H500.336C499.96 559.9 499.6 559.751 499.334 559.485C499.068 559.219 498.919 558.859 498.919 558.483C498.919 558.108 499.068 557.747 499.334 557.482C499.6 557.216 499.96 557.067 500.336 557.067H501.752V545.733H501.339C500.635 545.738 499.943 545.549 499.339 545.187C498.736 544.825 498.243 544.305 497.915 543.682V543.682ZM504.586 557.067H508.836V545.733H504.586V557.067ZM511.669 545.733V557.067H517.336V545.733H511.669ZM524.419 545.733H520.169V557.067H524.419V545.733ZM500.425 542.369C500.514 542.533 500.646 542.669 500.807 542.763C500.968 542.856 501.152 542.904 501.339 542.9H527.666C527.852 542.904 528.036 542.856 528.197 542.763C528.359 542.669 528.491 542.533 528.58 542.369C528.644 542.26 528.676 542.135 528.67 542.009C528.664 541.883 528.621 541.762 528.546 541.66C528.202 541.15 527.741 540.73 527.201 540.436L516.576 534.901C515.936 534.569 515.225 534.396 514.504 534.396C513.782 534.396 513.071 534.569 512.431 534.901L501.806 540.436C501.266 540.731 500.805 541.152 500.462 541.662C500.387 541.763 500.343 541.884 500.337 542.01C500.33 542.135 500.361 542.26 500.425 542.369V542.369Z" fill="#F1F1E6" fill-opacity="0.5"/>
<path class="fauna-lumineth" d="M488.957 382.588C491.137 380.486 492.408 377.614 492.498 374.587C492.498 366.577 488.578 365.713 486.894 365.713C482.689 365.713 478.558 369.821 475.503 373.534C472.47 369.852 468.326 365.713 464.11 365.713C458.232 365.344 456.082 377.146 462.049 382.589C462.298 382.836 462.557 383.067 462.819 383.283C461.572 384.479 460.683 386 460.252 387.673C459.822 389.347 459.867 391.107 460.383 392.757C460.621 393.568 461.037 394.317 461.6 394.948C462.164 395.578 462.861 396.076 463.641 396.403C464.397 396.727 465.216 396.878 466.038 396.846C466.86 396.814 467.665 396.599 468.394 396.218C470.49 395.131 472.408 393.73 474.082 392.064V395.434C474.082 395.81 474.231 396.17 474.497 396.436C474.762 396.702 475.123 396.851 475.498 396.851C475.874 396.851 476.234 396.702 476.5 396.436C476.766 396.17 476.915 395.81 476.915 395.434V392.064C478.59 393.73 480.509 395.131 482.607 396.216C483.336 396.598 484.14 396.813 484.963 396.846C485.785 396.878 486.604 396.727 487.36 396.403C488.14 396.076 488.837 395.579 489.4 394.948C489.964 394.318 490.38 393.569 490.618 392.758C491.152 391.107 491.212 389.339 490.793 387.655C490.374 385.971 489.493 384.438 488.248 383.228C488.491 383.027 488.727 382.815 488.957 382.588ZM474.082 386.419C474.082 388.512 471.135 391.578 467.074 393.709C466.716 393.898 466.321 394.004 465.917 394.019C465.513 394.034 465.11 393.957 464.74 393.794C464.347 393.628 463.996 393.377 463.712 393.058C463.428 392.739 463.219 392.362 463.1 391.952C462.693 390.679 462.687 389.311 463.084 388.034C463.481 386.757 464.261 385.633 465.318 384.815C466.391 385.27 467.542 385.509 468.707 385.518C470.547 385.543 472.374 385.202 474.082 384.516V386.419ZM474.082 381.246C472.479 382.294 470.582 382.798 468.67 382.684C467.795 382.665 466.933 382.467 466.137 382.105C465.341 381.742 464.626 381.221 464.038 380.573C462.405 378.998 461.441 376.855 461.346 374.588C461.346 370.749 462.356 368.547 464.116 368.547C466.639 368.546 469.982 371.15 474.082 376.296V381.246ZM476.915 376.309C480.995 371.167 484.355 368.546 486.894 368.546C488.655 368.546 489.665 370.747 489.665 374.587C489.57 376.853 488.606 378.996 486.973 380.572C485.785 381.85 484.141 382.608 482.398 382.684C480.463 382.798 478.543 382.291 476.915 381.239V376.309ZM487.897 391.961C487.778 392.37 487.569 392.748 487.285 393.067C487.001 393.385 486.65 393.637 486.257 393.802C485.886 393.965 485.484 394.041 485.08 394.026C484.676 394.011 484.281 393.905 483.923 393.716C479.862 391.578 476.915 388.512 476.915 386.419V384.513C478.625 385.202 480.455 385.543 482.298 385.518C483.48 385.514 484.649 385.268 485.732 384.795C486.796 385.613 487.576 386.743 487.964 388.027C488.352 389.312 488.329 390.685 487.897 391.955V391.961ZM472.665 367.101C472.665 366.349 472.964 365.629 473.495 365.097C474.026 364.566 474.747 364.268 475.498 364.268C476.25 364.268 476.971 364.566 477.502 365.097C478.033 365.629 478.332 366.349 478.332 367.101C478.332 367.852 478.033 368.573 477.502 369.104C476.971 369.636 476.25 369.934 475.498 369.934C474.747 369.934 474.026 369.636 473.495 369.104C472.964 368.573 472.665 367.852 472.665 367.101V367.101Z" fill="#F1F1E6" fill-opacity="0.5"/>
<path class="fauna-arakhara" d="M1002.96 385.588C1005.14 383.486 1006.41 380.614 1006.5 377.587C1006.5 369.577 1002.58 368.713 1000.89 368.713C996.689 368.713 992.558 372.821 989.503 376.534C986.47 372.852 982.326 368.713 978.11 368.713C972.232 368.344 970.082 380.146 976.049 385.589C976.298 385.836 976.557 386.067 976.819 386.283C975.572 387.479 974.683 389 974.252 390.673C973.822 392.347 973.867 394.107 974.383 395.757C974.621 396.568 975.037 397.317 975.6 397.948C976.164 398.578 976.861 399.076 977.641 399.403C978.397 399.727 979.216 399.878 980.038 399.846C980.86 399.814 981.665 399.599 982.394 399.218C984.49 398.131 986.408 396.73 988.082 395.064V398.434C988.082 398.81 988.231 399.17 988.497 399.436C988.762 399.702 989.123 399.851 989.498 399.851C989.874 399.851 990.234 399.702 990.5 399.436C990.766 399.17 990.915 398.81 990.915 398.434V395.064C992.59 396.73 994.509 398.131 996.607 399.216C997.336 399.598 998.14 399.813 998.963 399.846C999.785 399.878 1000.6 399.727 1001.36 399.403C1002.14 399.076 1002.84 398.579 1003.4 397.948C1003.96 397.318 1004.38 396.569 1004.62 395.758C1005.15 394.107 1005.21 392.339 1004.79 390.655C1004.37 388.971 1003.49 387.438 1002.25 386.228C1002.49 386.027 1002.73 385.815 1002.96 385.588ZM988.082 389.419C988.082 391.512 985.135 394.578 981.074 396.709C980.716 396.898 980.321 397.004 979.917 397.019C979.513 397.034 979.11 396.957 978.74 396.794C978.347 396.628 977.996 396.377 977.712 396.058C977.428 395.739 977.219 395.362 977.1 394.952C976.693 393.679 976.687 392.311 977.084 391.034C977.481 389.757 978.261 388.633 979.318 387.815C980.391 388.27 981.542 388.509 982.707 388.518C984.547 388.543 986.374 388.202 988.082 387.516V389.419ZM988.082 384.246C986.479 385.294 984.582 385.798 982.67 385.684C981.795 385.665 980.933 385.467 980.137 385.105C979.341 384.742 978.626 384.221 978.038 383.573C976.405 381.998 975.441 379.855 975.346 377.588C975.346 373.749 976.356 371.547 978.116 371.547C980.639 371.546 983.982 374.15 988.082 379.296V384.246ZM990.915 379.309C994.995 374.167 998.355 371.546 1000.89 371.546C1002.65 371.546 1003.67 373.747 1003.67 377.587C1003.57 379.853 1002.61 381.996 1000.97 383.572C999.785 384.85 998.141 385.608 996.398 385.684C994.463 385.798 992.543 385.291 990.915 384.239V379.309ZM1001.9 394.961C1001.78 395.37 1001.57 395.748 1001.28 396.067C1001 396.385 1000.65 396.637 1000.26 396.802C999.886 396.965 999.484 397.041 999.08 397.026C998.676 397.011 998.281 396.905 997.923 396.716C993.862 394.578 990.915 391.512 990.915 389.419V387.513C992.625 388.202 994.455 388.543 996.298 388.518C997.48 388.514 998.649 388.268 999.732 387.795C1000.8 388.613 1001.58 389.743 1001.96 391.027C1002.35 392.312 1002.33 393.685 1001.9 394.955V394.961ZM986.665 370.101C986.665 369.349 986.964 368.629 987.495 368.097C988.026 367.566 988.747 367.268 989.498 367.268C990.25 367.268 990.971 367.566 991.502 368.097C992.033 368.629 992.332 369.349 992.332 370.101C992.332 370.852 992.033 371.573 991.502 372.104C990.971 372.636 990.25 372.934 989.498 372.934C988.747 372.934 988.026 372.636 987.495 372.104C986.964 371.573 986.665 370.852 986.665 370.101V370.101Z" fill="#F1F1E6" fill-opacity="0.5"/>

<path class="pin fauna-lumineth" d="M475.502 430.001C472.52 430.016 469.577 429.317 466.921 427.961C464.264 426.606 461.971 424.633 460.234 422.21C446.737 403.591 439.891 389.594 439.891 380.606C439.891 371.161 443.643 362.103 450.321 355.424C456.999 348.746 466.057 344.994 475.502 344.994C484.947 344.994 494.005 348.746 500.683 355.424C507.362 362.103 511.114 371.161 511.114 380.606C511.114 389.594 504.268 403.591 490.77 422.21C489.033 424.633 486.74 426.606 484.083 427.961C481.427 429.317 478.484 430.016 475.502 430.001V430.001ZM475.502 352.726C468.109 352.734 461.02 355.675 455.792 360.903C450.564 366.131 447.623 373.219 447.615 380.613C447.615 387.731 454.319 400.896 466.489 417.68C467.522 419.103 468.877 420.261 470.444 421.059C472.01 421.858 473.744 422.274 475.502 422.274C477.261 422.274 478.994 421.858 480.561 421.059C482.127 420.261 483.483 419.103 484.516 417.68C496.685 400.896 503.389 387.731 503.389 380.613C503.381 373.219 500.44 366.131 495.212 360.903C489.984 355.675 482.896 352.734 475.502 352.726V352.726Z" fill="#F1F1E6" fill-opacity="0.5"/>
<path class="pin fauna-arakhara" d="M989.502 433.001C986.52 433.016 983.577 432.317 980.921 430.961C978.264 429.606 975.971 427.633 974.234 425.21C960.737 406.591 953.891 392.594 953.891 383.606C953.891 374.161 957.643 365.103 964.321 358.424C970.999 351.746 980.057 347.994 989.502 347.994C998.947 347.994 1008 351.746 1014.68 358.424C1021.36 365.103 1025.11 374.161 1025.11 383.606C1025.11 392.594 1018.27 406.591 1004.77 425.21C1003.03 427.633 1000.74 429.606 998.083 430.961C995.427 432.317 992.484 433.016 989.502 433.001V433.001ZM989.502 355.726C982.109 355.734 975.02 358.675 969.792 363.903C964.564 369.131 961.623 376.219 961.615 383.613C961.615 390.731 968.319 403.896 980.489 420.68C981.522 422.103 982.877 423.261 984.444 424.059C986.01 424.858 987.744 425.274 989.502 425.274C991.261 425.274 992.994 424.858 994.561 424.059C996.127 423.261 997.483 422.103 998.516 420.68C1010.68 403.896 1017.39 390.731 1017.39 383.613C1017.38 376.219 1014.44 369.131 1009.21 363.903C1003.98 358.675 996.896 355.734 989.502 355.726V355.726Z" fill="#F1F1E6" fill-opacity="0.5"/>
<path class="pin flora-nyxanthis" d="M308.502 495.001C305.52 495.016 302.577 494.317 299.921 492.961C297.264 491.606 294.971 489.633 293.234 487.21C279.737 468.591 272.891 454.594 272.891 445.606C272.891 436.161 276.643 427.103 283.321 420.424C289.999 413.746 299.057 409.994 308.502 409.994C317.947 409.994 327.005 413.746 333.683 420.424C340.362 427.103 344.114 436.161 344.114 445.606C344.114 454.594 337.268 468.591 323.77 487.21C322.033 489.633 319.74 491.606 317.083 492.961C314.427 494.317 311.484 495.016 308.502 495.001V495.001ZM308.502 417.726C301.109 417.734 294.02 420.675 288.792 425.903C283.564 431.131 280.623 438.219 280.615 445.613C280.615 452.731 287.319 465.896 299.489 482.68C300.522 484.103 301.877 485.261 303.444 486.059C305.01 486.858 306.744 487.274 308.502 487.274C310.261 487.274 311.994 486.858 313.561 486.059C315.127 485.261 316.483 484.103 317.516 482.68C329.685 465.896 336.389 452.731 336.389 445.613C336.381 438.219 333.44 431.131 328.212 425.903C322.984 420.675 315.896 417.734 308.502 417.726V417.726Z" fill="#F1F1E6" fill-opacity="0.5"/>
<path class="pin ruins-lumineth" d="M514.502 599.001C511.52 599.016 508.577 598.317 505.921 596.961C503.264 595.606 500.971 593.633 499.234 591.21C485.737 572.591 478.891 558.594 478.891 549.606C478.891 540.161 482.643 531.103 489.321 524.424C495.999 517.746 505.057 513.994 514.502 513.994C523.947 513.994 533.005 517.746 539.683 524.424C546.362 531.103 550.114 540.161 550.114 549.606C550.114 558.594 543.268 572.591 529.77 591.21C528.033 593.633 525.74 595.606 523.083 596.961C520.427 598.317 517.484 599.016 514.502 599.001V599.001ZM514.502 521.726C507.109 521.734 500.02 524.675 494.792 529.903C489.564 535.131 486.623 542.219 486.615 549.613C486.615 556.731 493.319 569.896 505.489 586.68C506.522 588.103 507.877 589.261 509.444 590.059C511.01 590.858 512.744 591.274 514.502 591.274C516.261 591.274 517.994 590.858 519.561 590.059C521.127 589.261 522.483 588.103 523.516 586.68C535.685 569.896 542.389 556.731 542.389 549.613C542.381 542.219 539.44 535.131 534.212 529.903C528.984 524.675 521.896 521.734 514.502 521.726V521.726Z" fill="#F1F1E6" fill-opacity="0.5"/>

<rect class="pin ruins-lumineth" x="472" y="496" width="85" height="121" fill="#D9D9D9"/>
<rect class="pin flora-nyxanthis" x="273" y="389" width="85" height="121" fill="#D9D9D9"/>
<rect class="pin fauna-lumineth" x="440" y="325" width="85" height="121" fill="#D9D9D9"/>
<rect class="pin fauna-arakhara" x="948" y="325" width="85" height="121" fill="#D9D9D9"/>

</svg>